<svg width="25" height="25" viewBox="0 0 25 25" fill="none" xmlns="http://www.w3.org/2000/svg">
<g id="vuesax/bulk/3d-cube-scan">
<g id="3d-cube-scan">
<path id="Vector" opacity="0.4" d="M22.332 10.25C21.922 10.25 21.582 9.91 21.582 9.5V7.5C21.582 4.92 19.912 3.25 17.332 3.25H7.33203C4.75203 3.25 3.08203 4.92 3.08203 7.5V9.5C3.08203 9.91 2.74203 10.25 2.33203 10.25C1.92203 10.25 1.58203 9.91 1.58203 9.5V7.5C1.58203 4.06 3.89203 1.75 7.33203 1.75H17.332C20.772 1.75 23.082 4.06 23.082 7.5V9.5C23.082 9.91 22.742 10.25 22.332 10.25Z" fill="#F7941E"/>
<path id="Vector_2" opacity="0.4" d="M17.332 23.25H7.33203C3.89203 23.25 1.58203 20.94 1.58203 17.5V15.5C1.58203 15.09 1.92203 14.75 2.33203 14.75C2.74203 14.75 3.08203 15.09 3.08203 15.5V17.5C3.08203 20.08 4.75203 21.75 7.33203 21.75H17.332C19.912 21.75 21.582 20.08 21.582 17.5V15.5C21.582 15.09 21.922 14.75 22.332 14.75C22.742 14.75 23.082 15.09 23.082 15.5V17.5C23.082 20.94 20.772 23.25 17.332 23.25Z" fill="#F7941E"/>
<path id="Vector_3" d="M16.7319 8.71005L12.972 6.68002C12.572 6.47002 12.102 6.47002 11.702 6.68002L7.94196 8.71005C7.67196 8.86005 7.50195 9.15001 7.50195 9.48001C7.50195 9.81001 7.67196 10.1 7.94196 10.25L11.702 12.2801C11.9019 12.3901 12.1219 12.44 12.3419 12.44C12.5619 12.44 12.7819 12.3901 12.9819 12.2801L16.742 10.25C17.012 10.1 17.182 9.81001 17.182 9.48001C17.172 9.15001 17.0019 8.86005 16.7319 8.71005Z" fill="#F7941E"/>
<path id="Vector_4" d="M11.0723 12.97L7.57227 11.22C7.30227 11.09 6.99225 11.1 6.73225 11.26C6.47225 11.42 6.32227 11.69 6.32227 11.99V15.3C6.32227 15.87 6.64227 16.39 7.15227 16.64L10.6523 18.39C10.7723 18.45 10.9023 18.48 11.0423 18.48C11.2023 18.48 11.3523 18.44 11.4923 18.35C11.7523 18.19 11.9023 17.92 11.9023 17.62V14.31C11.9023 13.74 11.5923 13.23 11.0723 12.97Z" fill="#F7941E"/>
<path id="Vector_5" d="M17.922 11.26C17.662 11.1 17.352 11.09 17.082 11.22L13.582 12.97C13.072 13.23 12.752 13.74 12.752 14.31V17.62C12.752 17.92 12.902 18.19 13.162 18.35C13.302 18.44 13.452 18.48 13.612 18.48C13.742 18.48 13.872 18.45 14.002 18.39L17.502 16.64C18.012 16.38 18.332 15.87 18.332 15.3V11.99C18.332 11.69 18.182 11.42 17.922 11.26Z" fill="#F7941E"/>
</g>
</g>
</svg>
