<svg width="25" height="25" viewBox="0 0 25 25" fill="none" xmlns="http://www.w3.org/2000/svg">
<g id="vuesax/bulk/building">
<g id="building">
<path id="Vector" opacity="0.4" d="M13.1667 7.91001V22.5H4.74672C3.58672 22.5 2.63672 21.57 2.63672 20.43V5.59001C2.63672 2.97001 4.59672 1.78001 6.98672 2.95001L11.4167 5.14001C12.3767 5.61001 13.1667 6.86001 13.1667 7.91001Z" fill="#25AAE1"/>
<path id="Vector_2" d="M9.63602 10.25H6.16602C5.75602 10.25 5.41602 9.91 5.41602 9.5C5.41602 9.09 5.75602 8.75 6.16602 8.75H9.63602C10.046 8.75 10.386 9.09 10.386 9.5C10.386 9.91 10.056 10.25 9.63602 10.25Z" fill="#25AAE1"/>
<path id="Vector_3" d="M9.63602 14.25H6.16602C5.75602 14.25 5.41602 13.91 5.41602 13.5C5.41602 13.09 5.75602 12.75 6.16602 12.75H9.63602C10.046 12.75 10.386 13.09 10.386 13.5C10.386 13.91 10.056 14.25 9.63602 14.25Z" fill="#25AAE1"/>
<path id="Vector_4" opacity="0.6" d="M22.666 15.55V20C22.666 21.38 21.546 22.5 20.166 22.5H13.166V10.92L13.636 11.02L17.676 11.92L18.156 12.03L20.196 12.49C20.686 12.59 21.136 12.76 21.526 13.01C21.526 13.02 21.536 13.02 21.536 13.02C21.636 13.09 21.736 13.17 21.826 13.26C22.286 13.72 22.586 14.39 22.656 15.37C22.656 15.43 22.666 15.49 22.666 15.55Z" fill="#25AAE1"/>
<path id="Vector_5" d="M13.166 10.92V16.92C13.626 17.53 14.346 17.92 15.166 17.92C16.556 17.92 17.676 16.8 17.676 15.42V11.93L13.636 11.03L13.166 10.92Z" fill="#25AAE1"/>
<path id="Vector_6" d="M22.6558 15.37C22.5858 14.39 22.2858 13.72 21.8258 13.26C21.7358 13.17 21.6358 13.09 21.5358 13.02C21.5358 13.02 21.5258 13.02 21.5258 13.01C21.1358 12.76 20.6858 12.59 20.1958 12.49L18.1558 12.03L17.6758 11.92V15.42C17.6758 16.79 18.7858 17.92 20.1758 17.92C21.5158 17.92 22.5858 16.87 22.6658 15.56V15.55C22.6658 15.49 22.6558 15.43 22.6558 15.37Z" fill="#25AAE1"/>
</g>
</g>
</svg>
