<svg width="24" height="25" viewBox="0 0 24 25" fill="none" xmlns="http://www.w3.org/2000/svg">
<g id="vuesax/bulk/note-2">
<g id="note-2">
<path id="Vector" opacity="0.4" d="M21.6602 10.94L20.6802 15.12C19.8402 18.73 18.1802 20.19 15.0602 19.89C14.5602 19.85 14.0202 19.76 13.4402 19.62L11.7602 19.22C7.59018 18.23 6.30018 16.17 7.28018 11.99L8.26018 7.80001C8.46018 6.95001 8.70018 6.21001 9.00018 5.60001C10.1702 3.18001 12.1602 2.53001 15.5002 3.32001L17.1702 3.71001C21.3602 4.69001 22.6402 6.76001 21.6602 10.94Z" fill="#EF3E36"/>
<path id="Vector_2" d="M15.0603 19.89C14.4403 20.31 13.6603 20.66 12.7103 20.97L11.1303 21.49C7.16034 22.77 5.07034 21.7 3.78034 17.73L2.50034 13.78C1.22034 9.81001 2.28034 7.71001 6.25034 6.43001L7.83034 5.91001C8.24034 5.78001 8.63034 5.67001 9.00034 5.60001C8.70034 6.21001 8.46034 6.95001 8.26034 7.80001L7.28034 11.99C6.30034 16.17 7.59034 18.23 11.7603 19.22L13.4403 19.62C14.0203 19.76 14.5603 19.85 15.0603 19.89Z" fill="#EF3E36"/>
<path id="Vector_3" d="M17.4894 11.01C17.4294 11.01 17.3694 11 17.2994 10.99L12.4494 9.75999C12.0494 9.65999 11.8094 9.24999 11.9094 8.84999C12.0094 8.44999 12.4194 8.20999 12.8194 8.30999L17.6694 9.53999C18.0694 9.63999 18.3094 10.05 18.2094 10.45C18.1294 10.78 17.8194 11.01 17.4894 11.01Z" fill="#EF3E36"/>
<path id="Vector_4" d="M14.5592 14.39C14.4992 14.39 14.4392 14.38 14.3692 14.37L11.4592 13.63C11.0592 13.53 10.8192 13.12 10.9192 12.72C11.0192 12.32 11.4292 12.08 11.8292 12.18L14.7392 12.92C15.1392 13.02 15.3792 13.43 15.2792 13.83C15.1992 14.17 14.8992 14.39 14.5592 14.39Z" fill="#EF3E36"/>
</g>
</g>
</svg>
